<?xml version="1.0" encoding="UTF-8" standalone="no"?>
<svg width="169px" height="158px" viewBox="0 0 169 158" version="1.1" xmlns="http://www.w3.org/2000/svg" xmlns:xlink="http://www.w3.org/1999/xlink">
    <!-- Generator: Sketch 50.2 (55047) - http://www.bohemiancoding.com/sketch -->
    <title>010-training</title>
    <desc>Created with Sketch.</desc>
    <defs></defs>
    <g id="Page-1" stroke="none" stroke-width="1" fill="none" fill-rule="evenodd">
        <g id="Landing-Page-MC" transform="translate(-806.000000, -900.000000)" fill-rule="nonzero">
            <g id="Group-7" transform="translate(770.000000, 864.000000)">
                <g id="010-training" transform="translate(36.864111, 36.864111)">
                    <path d="M34.4599303,2.12525807 L34.4599303,10.1966807 L26.445993,12.0209059 L18.4320557,10.1966807 L18.4320557,2.12525807 C18.4320557,0.95139994 19.344495,0 20.4702826,0 L32.4217035,0 C33.5474911,0 34.4599303,0.95174009 34.4599303,2.12525807 Z" id="Shape" fill="#5A5A5A"></path>
                    <path d="M35.261324,2.12525807 L35.261324,10.1966807 L31.6550523,12.0209059 L28.0487805,10.1966807 L28.0487805,2.12525807 C28.0487805,0.95139994 28.9771507,0 30.1225942,0 L33.1875103,0 C34.3329538,0 35.261324,0.95174009 35.261324,2.12525807 Z" id="Shape" fill="#444444"></path>
                    <path d="M148.25784,2.12525807 L148.25784,10.1966807 L140.243902,12.0209059 L132.229965,10.1966807 L132.229965,2.12525807 C132.229965,0.95139994 133.142404,0 134.268192,0 L146.219613,0 C147.3454,0 148.25784,0.95174009 148.25784,2.12525807 Z" id="Shape" fill="#5A5A5A"></path>
                    <path d="M149.059233,2.12525807 L149.059233,10.1966807 L145.452962,12.0209059 L141.84669,10.1966807 L141.84669,2.12525807 C141.84669,0.95139994 142.77506,0 143.920504,0 L146.98542,0 C148.130863,0 149.059233,0.95174009 149.059233,2.12525807 Z" id="Shape" fill="#444444"></path>
                    <path d="M167.491289,18.5094024 L167.491289,109.713594 C167.491289,114.182092 163.883992,117.804878 159.433846,117.804878 L9.41388666,117.804878 C4.2145796,117.804878 0,113.568875 0,108.351115 L0,19.8718813 C0,14.6541217 4.2145796,10.4181185 9.41388666,10.4181185 L159.433846,10.4181185 C163.883992,10.4181185 167.491289,14.0409046 167.491289,18.5094024 Z" id="Shape" fill="#DDEAFB"></path>
                    <path d="M167.491289,18.5073974 L167.491289,109.715599 C167.491289,114.183096 163.890377,117.804878 159.444923,117.804878 L150.662021,117.804878 C155.103774,117.804878 159.711744,114.183096 159.711744,109.715599 L159.711744,18.5073974 C159.711744,14.0399008 156.107131,10.4181185 151.665377,10.4181185 L159.444923,10.4181185 C163.890377,10.41778 167.491289,14.0395624 167.491289,18.5073974 Z" id="Shape" fill="#CBE2FF"></path>
                    <circle id="Oval" fill="#82AEE3" transform="translate(47.682927, 41.271777) rotate(-76.700416) translate(-47.682927, -41.271777) " cx="47.6829268" cy="41.271777" r="19.6341463"></circle>
                    <path d="M116.376795,40.0696864 L86.3758185,40.0696864 C85.1445896,40.0696864 84.1463415,39.0513894 84.1463415,37.7954325 L84.1463415,29.5216406 C84.1463415,28.2656838 85.1445896,27.2473868 86.3758185,27.2473868 L116.376795,27.2473868 C117.608024,27.2473868 118.606272,28.2656838 118.606272,29.5216406 L118.606272,37.7954325 C118.606272,39.0513894 117.608024,40.0696864 116.376795,40.0696864 Z" id="Shape" fill="#FFF9DF"></path>
                    <path d="M67.3170732,41.6724739 L47.28223,41.6724739 L47.28223,21.6376307 C58.3471236,21.6376307 67.3170732,30.6075803 67.3170732,41.6724739 Z" id="Shape" fill="#528FD8"></path>
                    <path d="M147.456446,119.575586 L147.456446,153.066202 L93.7630662,153.066202 L93.7630662,119.575586 C93.7630662,111.072472 100.676312,104.181185 109.210223,104.181185 L132.009626,104.181185 C140.539497,104.181185 147.456446,111.072472 147.456446,119.575586 Z" id="Shape" fill="#82AEE3"></path>
                    <path d="M147.456446,119.575586 L147.456446,153.066202 L137.342868,153.066202 L137.342868,119.575586 C137.342868,111.072472 130.388366,104.181185 121.811847,104.181185 L131.925424,104.181185 C140.501944,104.181185 147.456446,111.072472 147.456446,119.575586 Z" id="Shape" fill="#528FD8"></path>
                    <path d="M147.456446,138.826194 L147.456446,153.066202 L93.7630662,153.066202 L93.7630662,138.826194 C93.7630662,130.312285 100.680015,123.414634 109.210223,123.414634 L132.012992,123.414634 C133.907696,123.414634 135.721939,123.75421 137.400847,124.377941 C143.275506,126.560495 147.456446,132.202623 147.456446,138.826194 Z" id="Shape" fill="#5A5A5A"></path>
                    <path d="M129.937025,70.5226481 L112.885275,70.5226481 C109.848817,70.5226481 107.38676,72.9766408 107.38676,76.003152 L107.38676,81.9559067 L107.38676,91.0022458 C107.38676,96.9734798 111.143192,102.075157 116.432959,104.075378 C117.981058,104.662954 119.655848,104.982578 121.409261,104.982578 C129.15731,104.982578 135.43554,98.7211497 135.43554,91.0022458 L135.43554,81.9559067 L135.43554,76.003152 C135.43554,72.9766408 132.973482,70.5226481 129.937025,70.5226481 Z" id="Shape" fill="#5A5A5A"></path>
                    <path d="M128.499322,70.5226481 L118.84553,70.5226481 C121.790823,70.5226481 124.178961,72.9766408 124.178961,76.003152 L124.178961,81.9559067 L124.178961,91.0022458 C124.178961,96.9734798 120.531647,102.075157 115.400697,104.075378 C116.902316,104.662954 118.526823,104.982578 120.227593,104.982578 C127.743017,104.982578 133.832753,98.7211497 133.832753,91.0022458 L133.832753,81.9559067 L133.832753,76.003152 C133.832753,72.9766408 131.444615,70.5226481 128.499322,70.5226481 Z" id="Shape" fill="#444444"></path>
                    <path d="M75.3310105,119.575586 L75.3310105,153.066202 L21.6376307,153.066202 L21.6376307,119.575586 C21.6376307,111.072472 28.5508763,104.181185 37.0847875,104.181185 L59.8841903,104.181185 C68.4140615,104.181185 75.3310105,111.072472 75.3310105,119.575586 Z" id="Shape" fill="#A274BF"></path>
                    <path d="M74.5296167,119.575586 L74.5296167,153.066202 L64.4160391,153.066202 L64.4160391,119.575586 C64.4160391,111.072472 57.4615371,104.181185 48.8850174,104.181185 L58.9985951,104.181185 C67.5751147,104.181185 74.5296167,111.072472 74.5296167,119.575586 Z" id="Shape" fill="#925CB4"></path>
                    <path d="M75.3310105,138.826194 L75.3310105,153.066202 L21.6376307,153.066202 L21.6376307,138.826194 C21.6376307,130.312285 28.5545796,123.414634 37.0847875,123.414634 L59.8875569,123.414634 C61.7822609,123.414634 63.5965039,123.75421 65.275411,124.377941 C71.1500707,126.560495 75.3310105,132.202623 75.3310105,138.826194 Z" id="Shape" fill="#5A5A5A"></path>
                    <path d="M137.49709,124.377952 C135.834252,123.753878 134.037374,123.414634 132.160804,123.414634 L122.61324,123.414634 C124.48981,123.414634 126.287022,123.753878 127.949526,124.377952 C133.767959,126.560195 137.908882,132.202386 137.908882,138.826033 L137.908882,153.066202 L147.456446,153.066202 L147.456446,138.826033 C147.456113,132.202386 143.315189,126.560195 137.49709,124.377952 Z" id="Shape" fill="#444444"></path>
                    <path d="M64.5702611,124.377952 C62.9074232,123.753878 61.1105446,123.414634 59.2339751,123.414634 L49.6864111,123.414634 C51.5629806,123.414634 53.3598592,123.753878 55.0226972,124.377952 C60.8411295,126.560195 64.9820528,132.202386 64.9820528,138.826033 L64.9820528,153.066202 L74.5296167,153.066202 L74.5296167,138.826033 C74.5296167,132.202386 70.3886935,126.560195 64.5702611,124.377952 Z" id="Shape" fill="#444444"></path>
                    <path d="M57.0101954,70.5226481 L39.9584458,70.5226481 C36.921988,70.5226481 34.4599303,72.9766408 34.4599303,76.003152 L34.4599303,81.9559067 L34.4599303,91.0022458 C34.4599303,96.9734798 38.2163623,102.075157 43.5061298,104.075378 C45.0542289,104.662954 46.7290186,104.982578 48.4824322,104.982578 C56.2304808,104.982578 62.5087108,98.7211497 62.5087108,91.0022458 L62.5087108,81.9559067 L62.5087108,76.003152 C62.5087108,72.9766408 60.0466531,70.5226481 57.0101954,70.5226481 Z" id="Shape" fill="#5A5A5A"></path>
                    <path d="M55.5724929,70.5226481 L45.9187008,70.5226481 C48.8639933,70.5226481 51.2521312,72.9766408 51.2521312,76.003152 L51.2521312,81.9559067 L51.2521312,91.0022458 C51.2521312,96.9734798 47.6048175,102.075157 42.4738676,104.075378 C43.9754872,104.662954 45.5999938,104.982578 47.3007637,104.982578 C54.8161882,104.982578 60.9059233,98.7211497 60.9059233,91.0022458 L60.9059233,81.9559067 L60.9059233,76.003152 C60.9059233,72.9766408 58.5177854,70.5226481 55.5724929,70.5226481 Z" id="Shape" fill="#444444"></path>
                    <path d="M158.54789,156.271777 L93.891134,156.271777 C92.4923196,156.271777 91.358885,155.195345 91.358885,153.867596 C91.358885,152.539847 92.4923196,151.463415 93.891134,151.463415 L158.54789,151.463415 C159.946705,151.463415 161.080139,152.539847 161.080139,153.867596 C161.080139,155.195345 159.946705,156.271777 158.54789,156.271777 Z" id="Shape" fill="#444444"></path>
                    <path d="M82.4189796,156.271777 L8.13884892,156.271777 C6.74177805,156.271777 5.6097561,155.195345 5.6097561,153.867596 C5.6097561,152.539847 6.74177805,151.463415 8.13884892,151.463415 L82.4186424,151.463415 C83.8157132,151.463415 84.9477352,152.539847 84.9477352,153.867596 C84.9477352,155.195345 83.8157132,156.271777 82.4189796,156.271777 Z" id="Shape" fill="#444444"></path>
                    <path d="M144.915681,54.4947735 L86.6871065,54.4947735 C85.2835879,54.4947735 84.1463415,53.4183415 84.1463415,52.0905923 C84.1463415,50.7628432 85.2835879,49.6864111 86.6871065,49.6864111 L144.915681,49.6864111 C146.3192,49.6864111 147.456446,50.7628432 147.456446,52.0905923 C147.456446,53.4183415 146.318861,54.4947735 144.915681,54.4947735 Z" id="Shape" fill="#FFF9DF"></path>
                    <path d="M144.95773,35.261324 L130.721712,35.261324 C129.341422,35.261324 128.222997,34.184892 128.222997,32.8571429 C128.222997,31.5293937 129.341422,30.4529617 130.721712,30.4529617 L144.95773,30.4529617 C146.338021,30.4529617 147.456446,31.5293937 147.456446,32.8571429 C147.456446,34.184892 146.337688,35.261324 144.95773,35.261324 Z" id="Shape" fill="#FFF9DF"></path>
                </g>
            </g>
        </g>
    </g>
</svg>