<?xml version="1.0" encoding="UTF-8" standalone="no"?>
<svg width="145px" height="141px" viewBox="0 0 145 141" version="1.1" xmlns="http://www.w3.org/2000/svg" xmlns:xlink="http://www.w3.org/1999/xlink">
    <!-- Generator: Sketch 50.2 (55047) - http://www.bohemiancoding.com/sketch -->
    <title>017-multitasking</title>
    <desc>Created with Sketch.</desc>
    <defs></defs>
    <g id="Page-1" stroke="none" stroke-width="1" fill="none" fill-rule="evenodd">
        <g id="Landing-Page-MC" transform="translate(-1137.000000, -909.000000)" fill-rule="nonzero">
            <g id="Group-8" transform="translate(1090.000000, 864.000000)">
                <g id="017-multitasking" transform="translate(47.000000, 45.000000)">
                    <path d="M21,55 L1.24843088,55 C0.0328254979,55 -0.463392923,56.5942924 0.529620581,57.3100912 L11.1996141,65 L18.1994367,60.9561636 L21,55 Z" id="Shape" fill="#FFCEBF"></path>
                    <path d="M124,55 L143.751569,55 C144.967175,55 145.463393,56.5942924 144.470379,57.3100912 L133.800386,65 L127.513607,60.9561636 L124,55 Z" id="Shape" fill="#FFCEBF"></path>
                    <path d="M133,65.6373876 L120.431079,78.4031263 C115.953401,82.9509208 109.599113,84.443212 103.893637,82.8711349 C101.115091,82.1087366 98.4907469,80.6194004 96.311552,78.4031263 L93.7279405,75.7790578 L93.7279405,113.355246 L71.9636316,116 L50.2720595,113.355246 L50.2720595,75.7790578 L47.688448,78.4031263 C41.0286655,85.1671949 30.2287036,85.1671949 23.5689211,78.4031263 L11,65.6373876 L20.889297,55.5932334 L31.4594105,66.3288651 C33.7608032,68.6692505 37.4936564,68.6692505 39.7950491,66.3288651 L50.2720595,55.6907495 C53.0244205,52.4017987 56.358676,49.8220557 60.0333397,48.0608565 C60.0769818,48.0401713 60.1177144,48.0194861 60.1613565,48.0017559 L71.9650863,47 L83.841553,48.0017559 C85.0431651,48.5691221 86.2069541,49.2251392 87.327101,49.9668522 C89.6837737,51.5152891 91.8426023,53.439015 93.7279405,55.6907495 L104.204951,66.3288651 C106.506344,68.6692505 110.239197,68.6692505 112.54059,66.3288651 L123.110703,55.5932334 L127.777497,60.3331049 L133,65.6373876 Z" id="Shape" fill="#82AEE3"></path>
                    <path d="M86,22.8270103 L86,30.8690009 C86,38.1217044 79.9558452,44 72.4985027,44 C71.4231145,44 70.3788709,43.8785488 69.3771517,43.6467139 C63.4294255,42.2778397 59,37.0758263 59,30.8690009 L59,22.8270103 L72.4625665,21 L86,22.8270103 Z" id="Shape" fill="#FFCEBF"></path>
                    <path d="M86,22.8270103 L86,30.8690009 C86,38.1217044 79.8187108,44 72.1921705,44 C71.0923831,44 70.0244469,43.8785488 69,43.6467139 C75.0854291,42.2778397 79.615659,37.0758263 79.615659,30.8690009 L79.615659,22.8270103 L82.7070693,21 L86,22.8270103 Z" id="Shape" fill="#FFB09E"></path>
                    <polygon id="Shape" fill="#5A5A5A" points="51 113 95 113 95 140 51 140"></polygon>
                    <polygon id="Shape" fill="#444444" points="87 113 94 113 94 140 87 140"></polygon>
                    <path d="M94,75.3746806 L94,113 L87,113 L87,72.5149078 C87,71.1680184 88.7512727,70.4933902 89.7751818,71.4458587 L94,75.3746806 Z" id="Shape" fill="#528FD8"></path>
                    <path d="M134,64.2714944 L121.045182,76.9583223 C116.430028,81.4780047 109.880648,82.9610713 104,81.398712 C106.863854,80.6410264 109.568772,79.1608965 111.817873,76.9583223 L128.617153,59 L134,64.2714944 Z" id="Shape" fill="#528FD8"></path>
                    <path d="M85,47.5849471 L75.1747143,65.2983868 L74.0235164,67.3743852 C73.5602654,68.2097282 72.3689642,68.2082392 71.9077774,67.371705 L70.7515665,65.2745624 L69.6310358,63.2405544 L61,47.5849471 C64.063767,46.1465491 67.3604865,45.2620684 70.7515665,45.0089341 L72.9985256,45.334435 L75.1747143,45 C76.6019167,45.1042317 78.0114265,45.3186513 79.3943973,45.6402807 C81.3258386,46.0899662 83.2012532,46.7421591 84.9970512,47.5849471 L85,47.5849471 Z" id="Shape" fill="#DDEAFB"></path>
                    <path d="M84,47.0006625 L73.2870299,67.3565075 C72.8346124,68.2157723 71.6721988,68.2142407 71.2220837,67.3534442 L69,63.1042956 L78.5289716,45 C80.4140445,45.4625632 82.2444359,46.1334331 83.997122,47.0003562 L84,47.0003562 L84,47.0006625 Z" id="Shape" fill="#CBE2FF"></path>
                    <path d="M28,31.4985755 C28,37.2991453 23.299783,42 17.5,42 C16.1583017,42 14.8764243,41.7492877 13.6970971,41.2877493 C9.77740098,39.7663818 7,35.957265 7,31.4985755 C7,27.042735 9.77740098,23.2336182 13.6970971,21.7122507 C14.8764243,21.2507123 16.1583017,21 17.5,21 C23.299783,21 28,25.7008547 28,31.4985755 Z" id="Shape" fill="#FFD15B"></path>
                    <path d="M28,31.4985755 C28,37.2991453 23.3993228,42 17.7223661,42 C16.4090819,42 15.1543517,41.7492877 14,41.2877493 C17.8366859,39.7663818 20.5552679,35.957265 20.5552679,31.4985755 C20.5552679,27.042735 17.8366859,23.2336182 14,21.7122507 C15.1543517,21.2507123 16.4090819,21 17.7223661,21 C23.3993228,21 28,25.7008547 28,31.4985755 Z" id="Shape" fill="#FFC344"></path>
                    <path d="M136,31.4985755 C136,37.2991453 131.299145,42 125.501425,42 C124.196581,42 122.948718,41.7635328 121.797721,41.3276353 C117.826211,39.8319088 115,35.994302 115,31.4985755 C115,27.005698 117.826211,23.1680912 121.797721,21.6723647 C122.948718,21.2364672 124.196581,21 125.501425,21 C131.299145,21 136,25.7008547 136,31.4985755 Z" id="Shape" fill="#FFD15B"></path>
                    <path d="M136,31.4985755 C136,37.2991453 131.366098,42 125.650953,42 C124.364694,42 123.134604,41.7635328 122,41.3276353 C125.914945,39.8290598 128.698094,35.994302 128.698094,31.4985755 C128.698094,27.005698 125.914945,23.1709402 122,21.6723647 C123.134604,21.2364672 124.364694,21 125.650953,21 C131.366098,21 136,25.7008547 136,31.4985755 Z" id="Shape" fill="#FFC344"></path>
                    <path d="M111,7.00146597 C111,10.8657592 107.865759,14 104.001466,14 C102.966492,14 101.987225,13.7771728 101.104712,13.3725654 C98.6829319,12.273089 97,9.83371728 97,7.00146597 C97,4.16921466 98.6829319,1.72691099 101.104712,0.627434555 C101.987225,0.222827225 102.966492,0 104.001466,0 C107.865759,0 111,3.13424084 111,7.00146597 Z" id="Shape" fill="#FFD15B"></path>
                    <path d="M111,7.00146597 C111,10.8657592 107.832593,14 103.927407,14 C102.881481,14 101.891852,13.7771728 101,13.3725654 C103.447407,12.273089 105.148148,9.83371728 105.148148,7.00146597 C105.148148,4.16921466 103.447407,1.72691099 101,0.627434555 C101.891852,0.222827225 102.881481,0 103.927407,0 C107.832593,0 111,3.13424084 111,7.00146597 Z" id="Shape" fill="#FFC344"></path>
                    <path d="M48,7.00146597 C48,10.8657592 44.8664154,14 41,14 C39.9652429,14 38.9803183,13.7742408 38.0979899,13.3696335 C35.6796482,12.2672251 34,9.83078534 34,7.00146597 C34,4.16921466 35.6796482,1.73277487 38.0979899,0.630366492 C38.9803183,0.225759162 39.9652429,0 41,0 C44.8664154,0 48,3.13424084 48,7.00146597 Z" id="Shape" fill="#FFD15B"></path>
                    <path d="M48,7.00146597 C48,10.8657592 44.8354056,14 40.9307282,14 C39.8857312,14 38.8910598,13.7742408 38,13.3696335 C40.4393132,12.2672251 42.1355832,9.83078534 42.1355832,7.00146597 C42.1355832,4.1721466 40.4393132,1.73277487 38,0.630366492 C38.8910598,0.225759162 39.8857312,0 40.9307282,0 C44.8354056,0 48,3.13424084 48,7.00146597 Z" id="Shape" fill="#FFC344"></path>
                    <path d="M74,65.0237389 L74,113 L70,113 L70,65 L71.0456,67.0896142 C71.4626667,67.9231454 72.54,67.9246291 72.9589333,67.0922849 L74,65.0237389 Z" id="Shape" fill="#0473CE"></path>
                    <path d="M74,54 L74,65.436414 L72.9589333,67.4063483 C72.54,68.199013 71.4626667,68.1976001 71.0456,67.403805 L70,65.4138068 L70,61.567758 L74,54 Z" id="Shape" fill="#FD4755"></path>
                    <path d="M74,45.0730994 L74,53.1695906 L70,61 L70,45.0818713 C70.624,45.0263158 71.2533333,45 71.8853333,45 L72.1786667,45 C72.7893333,45 73.3946667,45.0233918 74,45.0730994 Z" id="Shape" fill="#FE646F"></path>
                    <path d="M72,141 C70.8954667,141 70,139.969085 70,138.69748 L70,123.30252 C70,122.030915 70.8954667,121 72,121 C73.1045333,121 74,122.030915 74,123.30252 L74,138.69748 C74,139.969085 73.1048,141 72,141 Z" id="Shape" fill="#444444"></path>
                    <path d="M19.8578314,34 L16.1421686,34 C14.9591203,34 14,33.1045333 14,32 C14,30.8954667 14.9591203,30 16.1421686,30 L19.8578314,30 C21.0408797,30 22,30.8954667 22,32 C22,33.1045333 21.0411653,34 19.8578314,34 Z" id="Shape" fill="#FFF9DF"></path>
                    <path d="M127.857831,34 L124.142169,34 C122.95912,34 122,33.1045333 122,32 C122,30.8954667 122.95912,30 124.142169,30 L127.857831,30 C129.04088,30 130,30.8954667 130,32 C130,33.1045333 129.04088,34 127.857831,34 Z" id="Shape" fill="#FFF9DF"></path>
                    <path d="M72,35 C70.8954552,35 70,34.1001495 70,32.990183 L70,30.009817 C70,28.8998505 70.8954552,28 72,28 C73.1045448,28 74,28.8998505 74,30.009817 L74,32.990183 C74,34.1001495 73.1045448,35 72,35 Z" id="Shape" fill="#FFB09E"></path>
                    <path d="M110.794774,141 L36.2052255,141 C34.987353,141 34,140.104533 34,139 C34,137.895467 34.987353,137 36.2052255,137 L110.794774,137 C112.012647,137 113,137.895467 113,139 C113,140.104533 112.012647,141 110.794774,141 Z" id="Shape" fill="#DDEAFB"></path>
                    <path d="M86,22.0856245 L86,24 L59,24 L59,22.0856245 C59,17.0671759 63.0152618,13 67.9669587,13 L77.0303461,13 C81.9847382,13 86,17.0671759 86,22.0856245 Z" id="Shape" fill="#87523E"></path>
                    <path d="M85,22.0856245 L85,24 L78.8444427,24 L78.8444427,22.0856245 C78.8444427,17.0671759 74.8852317,13 70,13 L76.1555573,13 C81.040789,13 85,17.0671759 85,22.0856245 Z" id="Shape" fill="#7C4B37"></path>
                </g>
            </g>
        </g>
    </g>
</svg>