<?xml version="1.0" encoding="UTF-8" standalone="no"?>
<svg width="129px" height="129px" viewBox="0 0 129 129" version="1.1" xmlns="http://www.w3.org/2000/svg" xmlns:xlink="http://www.w3.org/1999/xlink">
    <!-- Generator: Sketch 50.2 (55047) - http://www.bohemiancoding.com/sketch -->
    <title>Group 12</title>
    <desc>Created with Sketch.</desc>
    <defs>
        <rect id="path-1" x="0" y="0" width="79" height="79" rx="16"></rect>
        <filter x="-53.8%" y="-41.1%" width="207.6%" height="207.6%" filterUnits="objectBoundingBox" id="filter-2">
            <feOffset dx="0" dy="10" in="SourceAlpha" result="shadowOffsetOuter1"></feOffset>
            <feGaussianBlur stdDeviation="12.5" in="shadowOffsetOuter1" result="shadowBlurOuter1"></feGaussianBlur>
            <feColorMatrix values="0 0 0 0 0.305882353   0 0 0 0 0.450980392   0 0 0 0 0.874509804  0 0 0 0.5 0" type="matrix" in="shadowBlurOuter1"></feColorMatrix>
        </filter>
    </defs>
    <g id="Page-1" stroke="none" stroke-width="1" fill="none" fill-rule="evenodd">
        <g id="Landing-Page-MC" transform="translate(-166.000000, -1636.000000)">
            <g id="Group-12" transform="translate(191.000000, 1651.000000)">
                <g id="Rectangle-6">
                    <use fill="black" fill-opacity="1" filter="url(#filter-2)" xlink:href="#path-1"></use>
                    <use fill="#4E73DF" fill-rule="evenodd" xlink:href="#path-1"></use>
                </g>
                <g id="049-punctual" transform="translate(18.000000, 17.000000)" fill-rule="nonzero">
                    <polygon id="Shape" fill="#5A5A5A" points="19.2941176 4.82142857 25.7254902 4.82142857 25.7254902 9.64285714 19.2941176 9.64285714"></polygon>
                    <polygon id="Shape" fill="#444444" points="24.1176471 4.82142857 26.5294118 4.82142857 26.5294118 9.64285714 24.1176471 9.64285714"></polygon>
                    <path d="M28.9411765,2.41029172 C28.9411765,3.0762489 28.6537613,3.67882184 28.1888515,4.11575059 C27.7230407,4.55183423 27.0815372,4.82142857 26.3715587,4.82142857 L19.4519707,4.82142857 C18.0329146,4.82142857 16.8823529,3.74220608 16.8823529,2.41029172 C16.8823529,1.74433454 17.1697681,1.14260674 17.6346779,0.705677977 C18.1004887,0.269594341 18.7419922,0 19.4519707,0 L26.3715587,0 C27.7906148,0 28.9411765,1.07922249 28.9411765,2.41029172 Z" id="Shape" fill="#DDEAFB"></path>
                    <path d="M28.9411765,2.41029172 C28.9411765,3.0762489 28.652597,3.67882184 28.1858038,4.11575059 C27.718106,4.55183423 27.0740038,4.82142857 26.3611491,4.82142857 L24.1176471,4.82142857 C24.8305017,4.82142857 25.4746039,4.55183423 25.9423018,4.11575059 C26.4090949,3.67882184 26.6976744,3.0762489 26.6976744,2.41029172 C26.6976744,1.07922249 25.5424518,0 24.1176471,0 L26.3611491,0 C27.7859538,0 28.9411765,1.07922249 28.9411765,2.41029172 Z" id="Shape" fill="#CBE2FF"></path>
                    <ellipse id="Oval" fill="#FFF9DF" cx="23.3137255" cy="27.3214286" rx="16.0784314" ry="16.0714286"></ellipse>
                    <path d="M39.3921569,27.3209741 C39.3921569,36.1972785 32.1824885,43.3928571 23.2897142,43.3928571 C22.7550913,43.3928571 22.2268437,43.3664964 21.7058824,43.3155928 C29.8563778,42.522043 36.2254039,35.6637003 36.2254039,27.3209741 C36.2254039,18.9791568 29.8563778,12.1208141 21.7058824,11.3272643 C22.2268437,11.2763608 22.7550913,11.25 23.2897142,11.25 C32.1824885,11.25 39.3921569,18.4455787 39.3921569,27.3209741 Z" id="Shape" fill="#FFF0AD"></path>
                    <path d="M10.4262157,35.3571429 C10.1572303,35.3571429 9.89565748,35.2233874 9.7514675,34.9839125 C9.53650257,34.6270364 9.66414117,34.1706713 10.036395,33.9645866 L11.6950876,33.0465021 C12.0672399,32.8405147 12.5433715,32.9626859 12.7583364,33.3196592 C12.9733014,33.6765352 12.8456628,34.1329004 12.4734089,34.3389851 L10.8147163,35.2570696 C10.6921548,35.3249208 10.5582206,35.3571429 10.4262157,35.3571429 Z" id="Shape" fill="#FFD15B"></path>
                    <path d="M24.1176471,11.2641505 L24.1176471,13.840849 C24.1176471,14.185016 23.7585775,14.4642857 23.3137255,14.4642857 C22.8700271,14.4642857 22.5098039,14.185016 22.5098039,13.840849 L22.5098039,11.2641505 C22.7766941,11.2550421 23.044633,11.25 23.3137255,11.25 C23.5828179,11.25 23.8507568,11.2549608 24.1176471,11.2641505 Z" id="Shape" fill="#FFD15B"></path>
                    <path d="M16.5756858,15.9871135 C16.4792252,16.044451 16.3738063,16.0714286 16.2699072,16.0714286 C16.0573898,16.0714286 15.8513512,15.9584035 15.737694,15.7552058 L14.4705882,13.4912385 C14.8139593,13.2635383 15.1678883,13.0519256 15.5316553,12.8571429 L16.7995609,15.1228426 C16.9696868,15.4255354 16.8691469,15.8125433 16.5756858,15.9871135 Z" id="Shape" fill="#FFD15B"></path>
                    <path d="M16.7996149,37.9131465 L15.5316799,40.1785714 C15.1679045,39.9838124 14.8138873,39.7722253 14.4705882,39.5445527 L15.7377234,37.28086 C15.9069733,36.9782039 16.2821867,36.8745139 16.5756547,37.0489804 C16.8691226,37.2234469 16.9696647,37.6104904 16.7996149,37.9131465 Z" id="Shape" fill="#FFD15B"></path>
                    <path d="M24.1176471,39.1948653 L24.1176471,41.7715638 C23.8507568,41.7806721 23.5828179,41.7857143 23.3137255,41.7857143 C23.044633,41.7857143 22.7766941,41.7807535 22.5098039,41.7715638 L22.5098039,39.1948653 C22.5098039,38.8506983 22.8699222,38.5714286 23.3137255,38.5714286 C23.7585775,38.5714286 24.1176471,38.8506983 24.1176471,39.1948653 Z" id="Shape" fill="#FFD15B"></path>
                    <g id="Group" transform="translate(28.941176, 12.857143)">
                        <g transform="translate(0.000000, 12.946429)" fill="#FFD15B" id="Shape">
                            <path d="M5.90575401,6.63214286 C5.73736898,7.05892857 5.55056684,7.47678571 5.3471016,7.88392857 L4.83317647,7.58125 C4.51131551,7.39285714 4.40081283,6.975 4.58673797,6.64732143 C4.7717861,6.31964286 5.1831016,6.20714286 5.50496257,6.39642857 L5.90575401,6.63214286 Z"></path>
                            <path d="M1.94168984,12.4258929 C1.60491979,12.7375 1.25499465,13.0339286 0.892791444,13.3142857 L0.0938395722,11.9053571 C-0.0920855615,11.5776786 0.0184171123,11.1589286 0.340278075,10.9696429 C0.661262032,10.78125 1.07257754,10.89375 1.25850267,11.2205357 L1.94168984,12.4258929 Z"></path>
                            <path d="M7.02130481,0.741071429 C7.02130481,0.970535714 7.01691979,1.19910714 7.00727273,1.42678571 L6.81257754,1.42678571 C6.44160428,1.42678571 6.14079144,1.11964286 6.14079144,0.741964286 C6.14079144,0.363392857 6.44160428,0.0571428571 6.81257754,0.0571428571 L7.00727273,0.0571428571 C7.01691979,0.283928571 7.02130481,0.511607143 7.02130481,0.741071429 Z"></path>
                        </g>
                        <path d="M5.90575401,7.79732143 L5.50496257,8.03303571 C5.39972193,8.09553571 5.28395722,8.12410714 5.16906952,8.12410714 C4.9366631,8.12410714 4.71127273,8.00178571 4.58673797,7.78214286 C4.40081283,7.45446429 4.51131551,7.03660714 4.83317647,6.84821429 L5.3471016,6.54553571 C5.55056684,6.95267857 5.73736898,7.37053571 5.90575401,7.79732143 Z" id="Shape" fill="#FFD15B"></path>
                        <g transform="translate(0.877005, 0.000000)" fill="#FFC344" id="Shape">
                            <path d="M5.02874866,19.5785714 L7.03709091,20.7589286 C6.83011765,21.1616071 6.56263102,21.5383929 6.3635508,21.94375 L4.47009626,20.8303571 C4.6735615,20.4232143 4.86036364,20.0053571 5.02874866,19.5785714 Z"></path>
                            <path d="M5.02874866,7.79732143 C4.86036364,7.37053571 4.6735615,6.95267857 4.47009626,6.54553571 L6.3635508,5.43214286 C6.51264171,5.73571429 6.71873797,6.01696429 6.87835294,6.31517857 C6.93185027,6.41428571 6.98447059,6.51607143 7.03709091,6.61696429 L5.02874866,7.79732143 Z"></path>
                            <path d="M1.06468449,25.3723214 L1.7715508,26.61875 C1.39531551,26.8633929 1.00767914,27.1 0.607764706,27.3035714 L0.0157860963,26.2607143 C0.377989305,25.9803571 0.727914439,25.6839286 1.06468449,25.3723214 Z"></path>
                            <path d="M1.48740107,0.576785714 C1.58211765,0.635714286 1.67771123,0.696428571 1.7715508,0.757142857 L1.06468449,2.00357143 C0.727914439,1.69196429 0.377989305,1.39553571 0.0157860963,1.11517857 L0.607764706,0.0723214286 C0.905946524,0.23125 1.20062032,0.398214286 1.48740107,0.576785714 Z"></path>
                            <path d="M8.71480214,14.3732143 L6.13026738,14.3732143 C6.13991444,14.1455357 6.14429947,13.9169643 6.14429947,13.6875 C6.14429947,13.4580357 6.13991444,13.2303571 6.13026738,13.0035714 L8.71480214,13.0035714 C8.71918717,13.1178571 8.72357219,13.23125 8.72620321,13.3455357 C8.73146524,13.6883929 8.72795722,14.0303571 8.71480214,14.3732143 Z"></path>
                        </g>
                        <path d="M1.94168984,2.00357143 L1.25850267,3.20892857 C1.13396791,3.42857143 0.907700535,3.55089286 0.675294118,3.55089286 C0.562160428,3.55089286 0.446395722,3.52142857 0.340278075,3.45982143 C0.0184171123,3.27053571 -0.0920855615,2.85178571 0.0938395722,2.52410714 L0.892791444,1.11517857 C1.25499465,1.39553571 1.60491979,1.69196429 1.94168984,2.00357143 Z" id="Shape" fill="#FFD15B"></path>
                    </g>
                    <path d="M22.9122176,8.83928571 C12.9222255,8.83928571 4.82352941,16.9344545 4.82352941,26.9191902 C4.82352941,36.9048312 12.9222255,45 22.9122176,45 C32.9013039,45 41,36.9048312 41,26.9191902 C41,16.9344545 32.9013039,8.83928571 22.9122176,8.83928571 Z M22.9122176,42.1389405 C14.5028345,42.1389405 7.68583561,35.3249107 7.68583561,26.9191902 C7.68583561,18.514375 14.5028345,11.7003453 22.9122176,11.7003453 C31.3206949,11.7003453 38.1376938,18.514375 38.1376938,26.9191902 C38.1376938,35.3249107 31.3206949,42.1389405 22.9122176,42.1389405 Z" id="Shape" fill="#DDEAFB"></path>
                    <path d="M23.3629938,8.83928571 C23.0768307,8.83928571 22.7924341,8.8465289 22.5098039,8.86010988 C31.8533809,9.31643077 39.2927371,17.2278037 39.2927371,26.9191902 C39.2927371,36.6114821 31.8533809,44.5228549 22.5098039,44.9791758 C22.7924341,44.9927568 23.0768307,45 23.3629938,45 C33.1031362,45 41,36.9048312 41,26.9191902 C41,16.9344545 33.1031362,8.83928571 23.3629938,8.83928571 Z" id="Shape" fill="#CBE2FF"></path>
                    <polygon id="Shape" fill="#5A5A5A" points="10.4509804 42.1182873 6.43137255 42.5892857 2.41176471 42.1182873 2.41176471 27.8810394 6.43093059 27.3214286 10.4509804 27.8810394"></polygon>
                    <polygon id="Shape" fill="#444444" points="11.254902 27.7866534 11.254902 42.1981763 10.4509804 42.5892857 9.64705882 42.1981763 9.64705882 27.7866534 10.4509804 27.3214286"></polygon>
                    <polygon id="Shape" fill="#444444" points="7.23529412 27.7866534 7.23529412 42.1981763 6.43137255 42.5892857 5.62745098 42.1981763 5.62745098 27.7866534 6.43137255 27.3214286"></polygon>
                    <path d="M6.43137255,42.5892857 L6.43137255,45 L10.8542383,45 C11.5195391,45 12.0588235,44.5615146 12.0588235,44.0207043 C12.0588235,43.741526 11.9122629,43.4757246 11.6561028,43.2898374 L10.602664,42.5892857 L6.43137255,42.5892857 Z" id="Shape" fill="#DDEAFB"></path>
                    <path d="M12.8627451,44.0200772 C12.8627451,44.5612934 12.2742535,45 11.5476465,45 L9.92128791,45 C10.6478949,45 11.2363865,44.5621622 11.2363865,44.0209459 C11.2363865,43.8819498 11.1963531,43.7446911 11.1212903,43.6204633 C11.0462276,43.4962355 10.9371365,43.3833012 10.7970195,43.2903475 L9.64705882,42.5892857 L11.2734174,42.5892857 L12.4233781,43.2894788 C12.5624943,43.3824324 12.6725862,43.4953668 12.747649,43.6195946 C12.8227117,43.7446911 12.8627451,43.8802124 12.8627451,44.0200772 Z" id="Shape" fill="#CBE2FF"></path>
                    <path d="M7.23529412,42.5892857 L7.23529412,45 L2.81242838,45 C2.14712753,45 1.60784314,44.5615146 1.60784314,44.0207043 C1.60784314,43.741526 1.75440376,43.4757246 2.01056385,43.2898374 L3.06491986,42.5892857 L7.23529412,42.5892857 Z" id="Shape" fill="#DDEAFB"></path>
                    <polygon id="Shape" fill="#CBE2FF" points="5.62745098 42.5892857 7.23529412 42.5892857 7.23529412 45 5.62745098 45"></polygon>
                    <path d="M22.685963,27.5031233 C22.3334019,26.8984009 22.5266292,26.115677 23.1174923,25.7549356 L29.4686599,21.8767197 C30.0595231,21.5158889 30.8243082,21.7136485 31.1767821,22.3183708 C31.5293432,22.9230932 31.3361159,23.7058172 30.7452528,24.0665586 L24.3941726,27.9446851 C23.803222,28.3055159 23.0385242,28.1078457 22.685963,27.5031233 Z" id="Shape" fill="#444444"></path>
                    <path d="M13.6666667,19.5194511 L13.6666667,26.2631182 L10.9929724,26.2631182 L10.9929724,28.125 L2.67369431,28.125 L2.67369431,26.2631182 L0,26.2631182 L0,19.5194511 C0,18.0592581 1.19735404,16.875 2.67369431,16.875 L3.94879861,16.875 L6.67463133,17.4458685 L9.71603864,16.8768094 L9.71695335,16.875 L10.9929724,16.875 C11.7311425,16.875 12.3997947,17.1699337 12.8836758,17.6485223 C13.3666421,18.1280157 13.6666667,18.7893546 13.6666667,19.5194511 Z" id="Shape" fill="#FFD15B"></path>
                    <path d="M13.6666667,19.5912062 L13.6666667,26.5178571 L12.3069429,26.5178571 L12.3069429,19.5912062 C12.3069429,18.8412991 12.0016798,18.1620152 11.5102806,17.6695112 C11.0309803,17.190946 10.3739201,16.8917266 9.64705882,16.8768585 L9.6479895,16.875 L10.9462884,16.875 C11.6973473,16.875 12.3776746,17.1779364 12.8700044,17.6695112 C13.3614036,18.1620152 13.6666667,18.8412991 13.6666667,19.5912062 Z" id="Shape" fill="#FFC344"></path>
                    <path d="M13.6666667,25.7142857 L13.6666667,29.2048798 C13.6666667,29.9399814 13.1262267,30.5357143 12.4603718,30.5357143 C12.2524468,30.5357143 12.0568983,30.4783272 11.8861028,30.3753947 C11.8762016,30.3699293 11.8663004,30.3635529 11.8572243,30.3571766 C11.6814782,30.2451351 11.5346106,30.0857264 11.429823,29.895347 C11.3184346,29.6940366 11.254902,29.4572009 11.254902,29.2048798 L11.254902,25.7142857 L13.6666667,25.7142857 Z" id="Shape" fill="#FFCEBF"></path>
                    <path d="M12.8627451,25.7142857 L12.8627451,29.2048798 C12.8627451,29.9399814 12.3825184,30.5357143 11.7908497,30.5357143 C11.6060907,30.5357143 11.4323292,30.4783272 11.2805629,30.3753947 C11.2717649,30.3699293 11.2629668,30.3635529 11.254902,30.3571766 C11.5752975,30.128539 11.7915828,29.6976802 11.7915828,29.2048798 L11.7915828,25.7142857 L12.8627451,25.7142857 Z" id="Shape" fill="#FFB09E"></path>
                    <path d="M9.64705882,12.0535714 L9.64705882,14.0656917 C9.64705882,15.6173135 8.38917901,16.875 6.83422545,16.875 L6.83244122,16.875 C6.58264948,16.875 6.33910254,16.8429343 6.1089373,16.7814752 C6.0420288,16.7636609 5.97690452,16.7431745 5.91267236,16.7209067 C5.89929066,16.7173438 5.88501685,16.7119996 5.87163515,16.707546 C4.79128589,16.3156323 4.01960784,15.280624 4.01960784,14.0656917 L4.01960784,12.0535714 L6.83377939,12.6214009 L9.64705882,12.0535714 Z" id="Shape" fill="#FFCEBF"></path>
                    <path d="M8.84313725,12.0535714 L8.84313725,14.0656917 C8.84313725,15.6173135 7.69989024,16.875 6.28664234,16.875 L6.28502072,16.875 C6.05799294,16.875 5.83664086,16.8429343 5.62745098,16.7814752 C6.72123837,16.4626 7.52556534,15.3670232 7.52556534,14.0656917 L7.54380865,12.8433665 C7.97435061,12.6304861 8.39962228,12.5933434 8.84313725,12.0535714 Z" id="Shape" fill="#FFB09E"></path>
                    <path d="M2.41176471,25.7142857 L2.41176471,29.2048798 C2.41176471,29.9399814 1.87214989,30.5357143 1.2062949,30.5357143 C0.986818539,30.5357143 0.78054376,30.4710399 0.603147451,30.3571766 C0.242579139,30.1276281 0,29.6976802 0,29.2048798 L0,25.7142857 L2.41176471,25.7142857 Z" id="Shape" fill="#FFCEBF"></path>
                    <path d="M2.41176471,25.7142857 L2.41176471,29.2048798 C2.41176471,29.9399814 1.93205238,30.5357143 1.34011378,30.5357143 C1.14500143,30.5357143 0.961625161,30.4710399 0.803921569,30.3571766 C1.12372978,30.1276281 1.33938028,29.6976802 1.33938028,29.2048798 L1.33938028,25.7142857 L2.41176471,25.7142857 Z" id="Shape" fill="#FFB09E"></path>
                    <path d="M8.03921569,19.9645454 L8.03921569,28.125 L6.43137255,28.125 L6.43137255,19.9645454 C6.43137255,19.5898306 6.79152941,19.2857143 7.23529412,19.2857143 C7.68013072,19.2857143 8.03921569,19.5898306 8.03921569,19.9645454 Z" id="Shape" fill="#FFC344"></path>
                    <path d="M9.64705882,16.875 L9.64616671,16.8758422 L7.2856348,20.6491114 C7.08232217,20.9741057 6.58425529,20.9741057 6.38094266,20.6491114 L4.02049996,16.8758422 L4.01960784,16.875 L9.64705882,16.875 Z" id="Shape" fill="#CBE2FF"></path>
                    <path d="M8.84313725,16.875 L8.84232542,16.8758422 L6.69420477,20.6490316 C6.50910594,20.9741323 6.05610091,20.9741323 5.87100207,20.6490316 L5.62745098,20.2211789 L7.53202053,16.875 L8.84313725,16.875 Z" id="Shape" fill="#BAAFB9"></path>
                    <path d="M9.64705882,12.0689993 C9.15907282,12.6905402 8.67108682,13.0966957 8.19737464,13.3418249 C5.94121999,14.5161887 4.01960784,12.0689993 4.01960784,12.0689993 C4.01960784,11.173611 4.6521162,10.4464286 5.43093115,10.4464286 L8.23751974,10.4464286 C9.01544258,10.4464286 9.64705882,11.173611 9.64705882,12.0689993 Z" id="Shape" fill="#5A5A5A"></path>
                    <path d="M9.64705882,11.797385 C9.09823499,12.3148816 8.54941115,12.6530477 8.01664067,12.8571429 L8.01664067,11.797385 C8.01664067,11.0518825 7.30628002,10.4464286 6.43137255,10.4464286 L8.06179071,10.4464286 C8.93669817,10.4464286 9.64705882,11.0518825 9.64705882,11.797385 Z" id="Shape" fill="#444444"></path>
                    <path d="M3.21568627,20.8103009 L3.21568627,26.5178571 L1.60784314,26.5178571 L1.60784314,20.8103009 C1.60784314,20.4123005 1.96770947,20.0892857 2.41121445,20.0892857 C2.85581995,20.0892857 3.21568627,20.4123005 3.21568627,20.8103009 Z" id="Shape" fill="#FFC344"></path>
                    <path d="M11.254902,20.778455 L11.254902,28.125 L9.64705882,28.125 L9.64705882,20.778455 C9.64705882,20.3980336 10.0069189,20.0892857 10.4504857,20.0892857 C10.8950419,20.0892857 11.254902,20.3980336 11.254902,20.778455 Z" id="Shape" fill="#FFC344"></path>
                </g>
            </g>
        </g>
    </g>
</svg>