<?xml version="1.0" encoding="UTF-8" standalone="no"?>
<svg width="323px" height="351px" viewBox="0 0 323 351" version="1.1" xmlns="http://www.w3.org/2000/svg" xmlns:xlink="http://www.w3.org/1999/xlink">
    <!-- Generator: Sketch 50.2 (55047) - http://www.bohemiancoding.com/sketch -->
    <title>046-leader</title>
    <desc>Created with Sketch.</desc>
    <defs></defs>
    <g id="Page-1" stroke="none" stroke-width="1" fill="none" fill-rule="evenodd">
        <g id="Landing-Page-MC" transform="translate(0.000000, -2378.000000)" fill-rule="nonzero">
            <g id="046-leader" transform="translate(-84.000000, 2378.000000)">
                <path d="M333.506884,53.3805303 L304.246887,82 L302,64.8309271 L304.246887,51.928251 L319.163413,47.8583902 L328.956659,45.1799348 C333.729263,43.8841885 337.073507,49.8933206 333.506884,53.3805303 Z" id="Shape" fill="#FFCEBF"></path>
                <path d="M333.502568,53.3805303 L304.158,82 L303,73.173272 L304.158,66.9554292 L318.079728,53.3805303 C319.743817,51.7543253 319.906795,49.5889506 319.117639,47.8583902 L328.939192,45.1799348 C333.72559,43.8841885 337.0795,49.8933206 333.502568,53.3805303 Z" id="Shape" fill="#FFB09E"></path>
                <path d="M85,159.183822 L73.3786152,181.679346 C69.2068361,189.774621 57.1034181,188.295676 55,179.525795 L65.508326,159.183822 L72.8466258,157 L85,159.183822 Z" id="Shape" fill="#FFB09E"></path>
                <path d="M305,52 L305,81.7249284 L284.356796,85.8767908 C269.73373,88.8183381 253.896563,94 238.893113,94 L162,94 L162,64.2750716 L238.893113,64.2750716 C253.896563,64.2750716 269.73373,59.0934097 284.356796,56.1518625 L305,52 Z" id="Shape" fill="#82AEE3"></path>
                <polygon id="Shape" fill="#528FD8" points="305 52 305 81.8330373 284 86 284 56.1669627"></polygon>
                <path d="M135.215389,284 L139,317 L135.215389,350 L6.52996885,350 C2.92376324,350 0,347.088895 0,343.498302 L0,290.501698 C0,286.911105 2.92376324,284 6.52996885,284 L135.215389,284 Z" id="Shape" fill="#0473CE"></path>
                <polygon id="Shape" fill="#0067C5" points="135.23005 284 139 317 135.23005 350 115 350 115 284"></polygon>
                <path d="M270.301642,253 L277,301.5 L270.301642,350 L135,350 L135,259.513894 C135,255.916566 137.925441,253 141.533716,253 L270.301642,253 Z" id="Shape" fill="#528FD8"></path>
                <polygon id="Shape" fill="#0473CE" points="271.308432 253 278 301.5 271.308432 350 251 350 251 253"></polygon>
                <path d="M406,226.545226 L406,344.454774 C406,348.069406 403.080894,351 399.480433,351 L271,351 L271,226.545226 C271,222.930594 273.919106,220 277.519567,220 L399.480433,220 C403.080894,220 406,222.930594 406,226.545226 Z" id="Shape" fill="#82AEE3"></path>
                <path d="M407,226.545226 L407,344.454774 C407,348.065933 404.039243,351 400.395235,351 L382,351 C385.644008,351 388.604765,348.065933 388.604765,344.454774 L388.604765,226.545226 C388.604765,222.934067 385.644008,220 382,220 L400.395235,220 C404.039243,220 407,222.934067 407,226.545226 Z" id="Shape" fill="#528FD8"></path>
                <path d="M199,65 L188.17136,160.131794 L155.156581,164 L123.962469,160.131794 L130.698941,100.952586 C115.901245,108.813302 100.368346,115.401422 94.1642034,132.480639 L84.1158501,160.131794 L50,160.131794 L68.2153497,114.191413 C76.5921564,93.0996927 104.678128,82.6259812 123.008786,71.8932303 C130.724951,67.3817719 139.498836,65 148.428779,65 L199,65 Z" id="Shape" fill="#82AEE3"></path>
                <path d="M94.6335396,110.00426 L131,101 C116.171936,108.836912 100.607161,115.405082 94.3902856,132.432579 L84.321311,160 L65,160 L75.060287,132.432579 C78.5787811,122.795682 85.5549559,114.805376 94.6335396,110.00426 Z" id="Shape" fill="#528FD8"></path>
                <polygon id="Shape" fill="#528FD8" points="199 65 188.211057 159.734644 178.506191 162 169 159.734644 179.788943 65"></polygon>
                <path d="M236,189.515149 L236,231.893876 L221.381903,235.794556 L203.7133,231.893876 L203.7133,202.898817 C203.7133,197.03046 198.941994,192.27163 193.058254,192.27163 L146.309893,192.27163 L133.508194,219.87978 C132.621722,221.795447 131.509287,223.58976 130.205652,225.245382 L100.343713,262.882615 L79.8853298,267 L61,262.882615 C61.3823997,261.903111 61.9299265,260.975616 62.6338896,260.160807 L90.0884485,228.15789 C93.2606277,224.577933 95.9026619,220.555898 97.927642,216.230476 L124.226311,160 L206.407479,160 C222.746375,160 236,173.210305 236,189.515149 Z" id="Shape" fill="#5A5A5A"></path>
                <path d="M236,189.509521 L236,231.880168 L227.980511,234 L220.85383,231.880168 L220.85383,189.509521 C220.85383,173.207786 207.479244,160 191,160 L206.1374,160 C222.625414,160 236,173.207786 236,189.509521 Z" id="Shape" fill="#444444"></path>
                <path d="M258,254 L212.450949,254 C207.22943,254 203,249.765217 203,244.556522 L203,232 L235.991297,232 C248.140032,232 258,241.852174 258,254 Z" id="Shape" fill="#DDEAFB"></path>
                <path d="M258,254 L242.827152,254 C242.827152,241.852174 233.048519,232 221,232 L236.172848,232 C248.221367,232 258,241.852174 258,254 Z" id="Shape" fill="#CBE2FF"></path>
                <path d="M146,192 L133.195919,219.543491 C132.308076,221.456473 131.193921,223.248272 129.888271,224.901574 L99.9801655,262.48606 L92.4378567,264 L85,262.48606 L121.270976,224.399524 C122.559218,222.77219 145.286244,192.926195 146,192 Z" id="Shape" fill="#444444"></path>
                <path d="M115,277.910241 L115,285 L69.7104888,285 C64.3505774,285 60,280.650455 60,275.291815 L60,266.584025 C60,265.348754 60.2349312,264.130882 60.6960924,263 L100.086221,263 C108.214839,263 115,269.783551 115,277.910241 Z" id="Shape" fill="#DDEAFB"></path>
                <path d="M115,277.910241 L115,285 L99.8441109,285 C99.8441109,274.929063 98.125,263 85,263 L100.155889,263 C108.246536,263 115,269.783551 115,277.910241 Z" id="Shape" fill="#CBE2FF"></path>
                <path d="M193,22.3330072 L193,43.8466054 C193,54.9778908 183.820765,64 172.495621,64 C169.981841,64 167.573168,63.5523381 165.34843,62.7344942 C157.553087,59.8935629 152,52.5071415 152,43.8466054 L152,22.3330072 L174.054689,20 L193,22.3330072 Z" id="Shape" fill="#FFCEBF"></path>
                <path d="M192,22.7837248 L192,44.5809297 C192,55.8589553 183.037061,65 171.978777,65 C169.524232,65 167.172315,64.5464367 165,63.7178115 C172.611657,60.8307067 178.033893,53.3556348 178.033893,44.5809297 L178.038169,21 L192,22.7837248 Z" id="Shape" fill="#FFB09E"></path>
                <path d="M205,11.4957074 C205,17.7097424 199.657405,23 193.351648,23 L152,23 L152,11.7961926 C152,5.27995521 157.346072,0 163.943907,0 L193.351648,0 C199.78432,0 205,5.15117581 205,11.4957074 Z" id="Shape" fill="#5A5A5A"></path>
                <path d="M205,11.4957074 C205,17.7097424 199.635126,23 193.303073,23 L180,23 C186.318087,23 191.696927,17.7234789 191.696927,11.4957074 C191.696927,5.15117581 186.459497,0 180,0 L193.303073,0 C199.76257,0 205,5.15117581 205,11.4957074 Z" id="Shape" fill="#444444"></path>
                <path d="M335.703516,179.638795 L317.509326,189.290161 C313.102091,191.628119 307.950968,187.851686 308.793236,182.900616 L312.268453,162.458075 C312.602426,160.491926 311.956918,158.485724 310.540769,157.092528 L295.820933,142.615479 C292.255103,139.108978 294.222695,132.998942 299.150307,132.276222 L319.492452,129.293911 C321.448826,129.007435 323.140265,127.76662 324.015326,125.978104 L333.112852,107.378936 C335.316901,102.873688 341.683099,102.873688 343.887148,107.378936 L352.984674,125.978104 C353.859735,127.767491 355.551174,129.007435 357.507548,129.293911 L377.849693,132.276222 C382.777305,132.998942 384.744897,139.108107 381.179067,142.615479 L366.459231,157.092528 C365.043082,158.484853 364.397574,160.491056 364.731547,162.458075 L368.206764,182.900616 C369.048169,187.852557 363.897909,191.628119 359.489811,189.290161 L341.295621,179.638795 C339.543773,178.710578 337.453638,178.710578 335.703516,179.638795 Z" id="Shape" fill="#FFC344"></path>
            </g>
        </g>
    </g>
</svg>